<mxfile host="app.diagrams.net" modified="2022-11-02T02:13:56.532Z" agent="5.0 (Windows NT 10.0; Win64; x64) AppleWebKit/537.36 (KHTML, like Gecko) Chrome/97.0.4692.99 Safari/537.36" etag="u0h7r4DGwqT4woKfxYuI" version="20.5.1" type="github">
  <diagram id="JUfkbv9VFEBLnKnWdgaG" name="第 1 页">
    <mxGraphModel dx="1221" dy="644" grid="1" gridSize="10" guides="1" tooltips="1" connect="1" arrows="1" fold="1" page="1" pageScale="1" pageWidth="827" pageHeight="1169" math="0" shadow="0">
      <root>
        <mxCell id="0" />
        <mxCell id="1" parent="0" />
        <mxCell id="TFSnkRS1mbYTuwgmxGYo-19" style="edgeStyle=orthogonalEdgeStyle;rounded=0;orthogonalLoop=1;jettySize=auto;html=1;exitX=0;exitY=0;exitDx=150;exitDy=35.5;exitPerimeter=0;entryX=0;entryY=0;entryDx=0;entryDy=57;entryPerimeter=0;fontSize=16;endArrow=none;endFill=0;" edge="1" parent="1" source="TFSnkRS1mbYTuwgmxGYo-1" target="TFSnkRS1mbYTuwgmxGYo-5">
          <mxGeometry relative="1" as="geometry" />
        </mxCell>
        <mxCell id="TFSnkRS1mbYTuwgmxGYo-20" style="edgeStyle=orthogonalEdgeStyle;rounded=0;orthogonalLoop=1;jettySize=auto;html=1;exitX=0;exitY=0;exitDx=150;exitDy=78.5;exitPerimeter=0;entryX=0;entryY=0;entryDx=0;entryDy=57;entryPerimeter=0;fontSize=16;endArrow=none;endFill=0;" edge="1" parent="1" source="TFSnkRS1mbYTuwgmxGYo-1" target="TFSnkRS1mbYTuwgmxGYo-3">
          <mxGeometry relative="1" as="geometry" />
        </mxCell>
        <mxCell id="TFSnkRS1mbYTuwgmxGYo-22" value="" style="edgeStyle=orthogonalEdgeStyle;rounded=0;orthogonalLoop=1;jettySize=auto;html=1;fontSize=16;endArrow=none;endFill=0;entryX=0.506;entryY=0.141;entryDx=0;entryDy=0;entryPerimeter=0;exitX=0.25;exitY=1;exitDx=0;exitDy=0;exitPerimeter=0;dashed=1;startArrow=classic;startFill=1;" edge="1" parent="1" source="TFSnkRS1mbYTuwgmxGYo-1" target="TFSnkRS1mbYTuwgmxGYo-21">
          <mxGeometry relative="1" as="geometry" />
        </mxCell>
        <mxCell id="TFSnkRS1mbYTuwgmxGYo-1" value="&lt;font style=&quot;font-size: 16px;&quot;&gt;Central Office&lt;/font&gt;" style="shape=folder;fontStyle=1;spacingTop=10;tabWidth=40;tabHeight=14;tabPosition=left;html=1;" vertex="1" parent="1">
          <mxGeometry x="320" y="240" width="150" height="100" as="geometry" />
        </mxCell>
        <mxCell id="TFSnkRS1mbYTuwgmxGYo-8" style="edgeStyle=orthogonalEdgeStyle;rounded=0;orthogonalLoop=1;jettySize=auto;html=1;entryX=0;entryY=0;entryDx=0;entryDy=57;entryPerimeter=0;fontSize=16;exitX=0.5;exitY=1;exitDx=0;exitDy=0;exitPerimeter=0;endArrow=none;endFill=0;" edge="1" parent="1" source="TFSnkRS1mbYTuwgmxGYo-2" target="TFSnkRS1mbYTuwgmxGYo-1">
          <mxGeometry relative="1" as="geometry" />
        </mxCell>
        <mxCell id="TFSnkRS1mbYTuwgmxGYo-2" value="&lt;font style=&quot;font-size: 16px;&quot;&gt;Ward&lt;/font&gt;" style="shape=folder;fontStyle=1;spacingTop=10;tabWidth=40;tabHeight=14;tabPosition=left;html=1;" vertex="1" parent="1">
          <mxGeometry x="70" y="130" width="150" height="100" as="geometry" />
        </mxCell>
        <mxCell id="TFSnkRS1mbYTuwgmxGYo-3" value="&lt;span style=&quot;font-size: 16px;&quot;&gt;Nurses&lt;/span&gt;" style="shape=folder;fontStyle=1;spacingTop=10;tabWidth=40;tabHeight=14;tabPosition=left;html=1;" vertex="1" parent="1">
          <mxGeometry x="560" y="360" width="150" height="100" as="geometry" />
        </mxCell>
        <mxCell id="TFSnkRS1mbYTuwgmxGYo-4" value="&lt;font style=&quot;font-size: 16px;&quot;&gt;Patients&lt;/font&gt;" style="shape=folder;fontStyle=1;spacingTop=10;tabWidth=40;tabHeight=14;tabPosition=left;html=1;" vertex="1" parent="1">
          <mxGeometry x="320" y="20" width="150" height="100" as="geometry" />
        </mxCell>
        <mxCell id="TFSnkRS1mbYTuwgmxGYo-5" value="&lt;font style=&quot;font-size: 16px;&quot;&gt;Doctors&lt;/font&gt;" style="shape=folder;fontStyle=1;spacingTop=10;tabWidth=40;tabHeight=14;tabPosition=left;html=1;" vertex="1" parent="1">
          <mxGeometry x="560" y="120" width="150" height="100" as="geometry" />
        </mxCell>
        <mxCell id="TFSnkRS1mbYTuwgmxGYo-9" style="edgeStyle=orthogonalEdgeStyle;rounded=0;orthogonalLoop=1;jettySize=auto;html=1;entryX=0;entryY=0;entryDx=0;entryDy=57;entryPerimeter=0;fontSize=16;endArrow=none;endFill=0;exitX=0.512;exitY=0.122;exitDx=0;exitDy=0;exitPerimeter=0;" edge="1" parent="1" source="TFSnkRS1mbYTuwgmxGYo-2" target="TFSnkRS1mbYTuwgmxGYo-4">
          <mxGeometry relative="1" as="geometry">
            <mxPoint x="146" y="140" as="sourcePoint" />
            <mxPoint x="462.5" y="215.5" as="targetPoint" />
            <Array as="points">
              <mxPoint x="147" y="77" />
            </Array>
          </mxGeometry>
        </mxCell>
        <mxCell id="TFSnkRS1mbYTuwgmxGYo-13" style="edgeStyle=orthogonalEdgeStyle;rounded=0;orthogonalLoop=1;jettySize=auto;html=1;entryX=0.5;entryY=1;entryDx=0;entryDy=0;entryPerimeter=0;fontSize=16;exitX=0.499;exitY=0.15;exitDx=0;exitDy=0;exitPerimeter=0;endArrow=none;endFill=0;" edge="1" parent="1" source="TFSnkRS1mbYTuwgmxGYo-1" target="TFSnkRS1mbYTuwgmxGYo-4">
          <mxGeometry relative="1" as="geometry">
            <mxPoint x="580" y="230" as="sourcePoint" />
            <mxPoint x="670" y="130" as="targetPoint" />
          </mxGeometry>
        </mxCell>
        <mxCell id="TFSnkRS1mbYTuwgmxGYo-21" value="&lt;font style=&quot;&quot;&gt;&lt;span style=&quot;font-size: 16px;&quot;&gt;Control of&lt;/span&gt;&lt;br&gt;&lt;span style=&quot;font-size: 16px;&quot;&gt;urgence alarm&lt;/span&gt;&lt;br&gt;&lt;/font&gt;" style="shape=folder;fontStyle=1;spacingTop=10;tabWidth=40;tabHeight=14;tabPosition=left;html=1;" vertex="1" parent="1">
          <mxGeometry x="170" y="420" width="150" height="100" as="geometry" />
        </mxCell>
        <mxCell id="TFSnkRS1mbYTuwgmxGYo-23" value="&lt;font style=&quot;&quot;&gt;&lt;span style=&quot;font-size: 16px;&quot;&gt;Update the&lt;br&gt;disease report&lt;br&gt;and&amp;nbsp;medical record&lt;/span&gt;&lt;br&gt;&lt;/font&gt;" style="shape=folder;fontStyle=1;spacingTop=10;tabWidth=40;tabHeight=14;tabPosition=left;html=1;" vertex="1" parent="1">
          <mxGeometry x="380" y="510" width="170" height="100" as="geometry" />
        </mxCell>
        <mxCell id="TFSnkRS1mbYTuwgmxGYo-24" value="" style="edgeStyle=orthogonalEdgeStyle;rounded=0;orthogonalLoop=1;jettySize=auto;html=1;fontSize=16;endArrow=none;endFill=0;entryX=0.529;entryY=0.1;entryDx=0;entryDy=0;entryPerimeter=0;exitX=0.75;exitY=1;exitDx=0;exitDy=0;exitPerimeter=0;dashed=1;startArrow=classic;startFill=1;" edge="1" parent="1" source="TFSnkRS1mbYTuwgmxGYo-1" target="TFSnkRS1mbYTuwgmxGYo-23">
          <mxGeometry relative="1" as="geometry">
            <mxPoint x="491.6" y="400" as="sourcePoint" />
            <mxPoint x="380.0000000000001" y="494.0999999999999" as="targetPoint" />
          </mxGeometry>
        </mxCell>
      </root>
    </mxGraphModel>
  </diagram>
</mxfile>
